<?xml version="1.0" encoding="UTF-8" standalone="no"?>
<!-- Uploaded to: SVG Repo, www.svgrepo.com, Generator: SVG Repo Mixer Tools -->

<svg
   xmlns:dc="http://purl.org/dc/elements/1.1/"
   xmlns:cc="http://creativecommons.org/ns#"
   xmlns:rdf="http://www.w3.org/1999/02/22-rdf-syntax-ns#"
   xmlns:svg="http://www.w3.org/2000/svg"
   xmlns="http://www.w3.org/2000/svg"
   xmlns:sodipodi="http://sodipodi.sourceforge.net/DTD/sodipodi-0.dtd"
   xmlns:inkscape="http://www.inkscape.org/namespaces/inkscape"
   fill="#000000"
   version="1.1"
   id="Capa_1"
   width="90mm"
   height="90mm"
   viewBox="0 0 506.812 506.812"
   xml:space="preserve"
   sodipodi:docname="m1.svg"
   inkscape:version="0.92.4 (5da689c313, 2019-01-14)"><metadata
   id="metadata3917"><rdf:RDF><cc:Work
       rdf:about=""><dc:format>image/svg+xml</dc:format><dc:type
         rdf:resource="http://purl.org/dc/dcmitype/StillImage" /><dc:title></dc:title></cc:Work></rdf:RDF></metadata><defs
   id="defs3915" /><sodipodi:namedview
   pagecolor="#ffffff"
   bordercolor="#666666"
   borderopacity="1"
   objecttolerance="10"
   gridtolerance="10"
   guidetolerance="10"
   inkscape:pageopacity="0"
   inkscape:pageshadow="2"
   inkscape:window-width="640"
   inkscape:window-height="480"
   id="namedview3913"
   showgrid="false"
   inkscape:zoom="0.6937963"
   inkscape:cx="170.07874"
   inkscape:cy="170.07874"
   inkscape:window-x="0"
   inkscape:window-y="0"
   inkscape:window-maximized="0"
   inkscape:current-layer="Capa_1" />
<g
   id="g3910">
	<g
   id="Layer_2_28_">
		<polygon
   points="96.428,396.844 0,396.844 0,444.656 73.928,444.656   "
   id="polygon3889" />
		<polygon
   points="442.447,444.656 506.812,444.656 506.812,396.844 419.946,396.844   "
   id="polygon3891" />
		<polygon
   points="127.927,329.906 38.25,329.906 38.25,377.719 105.427,377.719   "
   id="polygon3893" />
		<polygon
   points="410.948,377.719 468.562,377.719 468.562,329.906 388.448,329.906   "
   id="polygon3895" />
		<polygon
   points="159.426,262.969 86.062,262.969 86.062,310.781 136.925,310.781   "
   id="polygon3897" />
		<polygon
   points="379.449,310.781 420.75,310.781 420.75,262.969 356.949,262.969   "
   id="polygon3899" />
		<polygon
   points="190.925,196.031 133.875,196.031 133.875,243.844 168.424,243.844   "
   id="polygon3901" />
		<polygon
   points="347.951,243.844 372.938,243.844 372.938,196.031 325.45,196.031   "
   id="polygon3903" />
		<polygon
   points="217.929,138.656 221.754,130.509 226.928,119.531 229.5,119.531 229.5,81.281 286.875,81.281 286.875,119.531     289.447,119.531 294.621,130.509 298.445,138.656 316.452,176.906 353.812,176.906 344.25,138.656 325.125,138.656     325.125,81.281 344.25,81.281 344.25,43.031 172.125,43.031 172.125,81.281 191.25,81.281 191.25,138.656 172.125,138.656     162.562,176.906 199.923,176.906   "
   id="polygon3905" />
		<polygon
   points="421.314,444.656 398.813,396.844 389.815,377.719 367.314,329.906 358.316,310.781 335.815,262.969     326.808,243.844 304.317,196.031 295.31,176.906 277.312,138.656 239.062,138.656 221.066,176.906 212.058,196.031     189.567,243.844 180.559,262.969 158.059,310.781 149.06,329.906 126.56,377.719 117.562,396.844 95.061,444.656 86.062,463.781     430.312,463.781   "
   id="polygon3907" />
	</g>
</g>
</svg>